<?xml version="1.0" ?><!DOCTYPE svg  PUBLIC '-//W3C//DTD SVG 1.1//EN'  'http://www.w3.org/Graphics/SVG/1.1/DTD/svg11.dtd'><svg enable-background="new 0 0 512 512" height="512px" id="Layer_1" version="1.1" viewBox="0 0 512 512" width="512px" xml:space="preserve" xmlns="http://www.w3.org/2000/svg" xmlns:xlink="http://www.w3.org/1999/xlink"><g><linearGradient gradientTransform="matrix(1 0 0 -1 -41.66 349.04)" gradientUnits="userSpaceOnUse" id="SVGID_1_" x1="245.2802" x2="317.0631" y1="128.5866" y2="56.8036"><stop offset="0" style="stop-color:#DD272D"/><stop offset="0.5153" style="stop-color:#CA2429"/><stop offset="1" style="stop-color:#B22025"/></linearGradient><polygon fill="url(#SVGID_1_)" points="222.292,306.625 306.667,256 222.292,205.375  "/><linearGradient gradientTransform="matrix(1 0 0 -1 -41.66 349.04)" gradientUnits="userSpaceOnUse" id="SVGID_2_" x1="104.9192" x2="494.1405" y1="285.7803" y2="-103.4408"><stop offset="0" style="stop-color:#DD272D"/><stop offset="0.5153" style="stop-color:#CA2429"/><stop offset="1" style="stop-color:#B22025"/></linearGradient><path d="M348.489,35.511H163.511c-70.692,0-128,57.308-128,128v184.978c0,70.693,57.308,128,128,128h184.978   c70.692,0,128-57.307,128-128V163.511C476.489,92.819,419.181,35.511,348.489,35.511z M390.957,266.885c0,23.304-2.7,46.6-2.7,46.6   s-2.641,19.845-10.724,28.569c-10.268,11.458-21.769,11.526-27.042,12.201C312.716,357.149,256,357.25,256,357.25   s-70.183-0.683-91.775-2.894c-6.008-1.198-19.482-0.852-29.759-12.31c-8.092-8.724-10.724-28.569-10.724-28.569   s-2.7-23.287-2.7-46.6v-21.836c0-23.296,2.7-46.592,2.7-46.592s2.641-19.853,10.724-28.595   c10.277-11.458,21.769-11.526,27.042-12.175c37.766-2.928,94.424-2.928,94.424-2.928h0.127c0,0,56.658,0,94.432,2.928   c5.273,0.65,16.774,0.717,27.042,12.175c8.092,8.741,10.724,28.595,10.724,28.595s2.7,23.296,2.7,46.6V266.885z" fill="url(#SVGID_2_)"/></g></svg>